<svg width="92" height="92" viewBox="0 0 92 92" fill="none" xmlns="http://www.w3.org/2000/svg">
<path fill-rule="evenodd" clip-rule="evenodd" d="M46 92C71.4051 92 92 71.4051 92 46C92 45.1116 91.9748 44.229 91.9251 43.3531L71.8891 63.3891C69.7412 65.537 66.2588 65.537 64.1109 63.3891L40 39.2782L7.73671 71.5415C15.9874 83.8772 30.0451 92 46 92ZM2.55796 61.1639C0.900784 56.4159 0 51.3131 0 46C0 20.5949 20.5949 0 46 0C65.9384 0 82.914 12.6852 89.2965 30.4254L68 51.7218L43.8891 27.6109C41.7412 25.463 38.2588 25.463 36.1109 27.6109L2.55796 61.1639Z" fill="#17C671"/>
</svg>
